<?xml version="1.0" encoding="utf-8"?>
<svg viewBox="0 0 350 440" version="1.1" xmlns="http://www.w3.org/2000/svg" xmlns:xlink="http://www.w3.org/1999/xlink">
    <defs>
        <rect id="path-1" x="12" y="17" width="289" height="294" rx="6"></rect>
    </defs>
    <g id="Page-1" stroke="none" stroke-width="1" fill="none" fill-rule="evenodd">
        <g id="Rig" transform="translate(20.000000, 2.000000)">
            <rect id="Rig-Back" stroke="#000000" stroke-width="4" fill="#000000" x="0" y="0" width="313" height="328" rx="6"></rect>
            <rect id="Rig-Side-Trim" stroke="#FEFEFE" stroke-width="4" fill="#000000" x="6.36610169" y="7" width="301.328814" height="325" rx="6"></rect>
            <mask id="mask-2" fill="white">
                <use xlink:href="#path-1"></use>
            </mask>
            <use id="Mask" xlink:href="#path-1"></use>
            <g id="Rig-Lines" mask="url(#mask-2)" stroke-linecap="square" stroke="#FFFFFF" stroke-width="7">
                <g transform="translate(27.464407, 17.000000)">
                    <path d="M3.71355932,8.5 L3.71355932,113.5" id="Line"></path>
                    <path d="M21.7508475,0.5 L21.7508475,105.5" id="Line-Copy"></path>
                    <path d="M39.7881356,0.5 L39.7881356,105.5" id="Line-Copy-2"></path>
                    <path d="M57.8254237,0.5 L57.8254237,105.5" id="Line-Copy-3"></path>
                    <path d="M75.8627119,0.5 L75.8627119,105.5" id="Line-Copy-4"></path>
                    <path d="M93.9,0.5 L93.9,105.5" id="Line-Copy-5"></path>
                    <path d="M111.937288,0.5 L111.937288,105.5" id="Line-Copy-6"></path>
                    <path d="M129.974576,0.5 L129.974576,105.5" id="Line-Copy-7"></path>
                    <path d="M148.011864,0.5 L148.011864,105.5" id="Line-Copy-8"></path>
                    <path d="M166.049153,0.5 L166.049153,105.5" id="Line-Copy-9"></path>
                    <path d="M184.086441,0.5 L184.086441,105.5" id="Line-Copy-10"></path>
                    <path d="M202.123729,0.5 L202.123729,105.5" id="Line-Copy-11"></path>
                    <path d="M220.161017,0.5 L220.161017,105.5" id="Line-Copy-12"></path>
                    <path d="M238.198305,0.5 L238.198305,105.5" id="Line-Copy-13"></path>
                    <path d="M255.174576,7.5 L255.174576,112.5" id="Line-Copy-14"></path>
                </g>
            </g>
        </g>
        <g id="Cabin" transform="translate(35.000000, 87.000000)" fill="#000000">
            <rect id="Cap" x="120" y="0" width="44" height="24" rx="40"></rect>
            <rect stroke="#000000" stroke-width="4" x="0" y="12" width="284" height="296" rx="6"></rect>
        </g>
        <g id="Hood-+-Front" transform="translate(56.000000, 223.000000)">
            <path d="M56.6240965,0 L186.529899,0 C196.367771,0 208.064585,6.95211848 212.646414,15.5110864 L237.564823,62.0592786 C242.150703,70.6258151 233.8996,77.570365 219.118086,77.570365 L24.03591,77.570365 C9.26217781,77.570365 1.00734394,70.6182466 5.58917298,62.0592786 L30.5075814,15.5110864 C35.0934621,6.94454994 46.7810419,0 56.6240965,0 Z" id="Hood" stroke="#FFFFFF" stroke-width="4" fill="#000000"></path>
            <rect id="Front" stroke="#000000" stroke-width="4" fill="#000000" x="0" y="38" width="241.069095" height="120" rx="6"></rect>
            <g id="Grill" transform="translate(42.000000, 56.000000)">
                <rect id="Rectangle-5" stroke="#FFFFFF" fill="#FFFFFF" x="0" y="0" width="155" height="92" rx="8"></rect>
                <rect id="Rectangle-5-Copy" stroke="#000000" fill="#000000" x="10" y="16" width="135.071429" height="70" rx="6"></rect>
                <g id="Grill-Rods" transform="translate(27.035714, 16.000000)" fill="#FFFFFF">
                    <rect id="Rectangle-12" x="90" y="0" width="11.0714286" height="70"></rect>
                    <rect id="Rectangle-12-Copy-2" x="59.9642857" y="0" width="11.0714286" height="70"></rect>
                    <rect id="Rectangle-12-Copy-4" x="29.9642857" y="0" width="11.0714286" height="70"></rect>
                    <rect id="Rectangle-12-Copy-6" x="0" y="0" width="11.0714286" height="70"></rect>
                </g>
            </g>
            <rect id="Path" fill="#FFFFFF" x="117" y="16" width="7" height="18" rx="40"></rect>
            <rect id="Cap" fill="#FFFFFF" x="98" y="30" width="44" height="8" rx="40"></rect>
            <circle id="Path" fill="#FDFDFD" cx="120.5" cy="15.5" r="7.5"></circle>
        </g>
        <g id="Right-Wheel" transform="translate(2.000000, 315.000000)" fill="#000000">
            <rect stroke="#020202" x="11" y="8" width="43" height="116" rx="19"></rect>
            <rect id="Fender-Right" stroke="#000000" stroke-width="3" x="0" y="0" width="65" height="83" rx="19"></rect>
        </g>
        <g id="Left-Wheel" transform="translate(283.000000, 315.000000)" fill="#000000">
            <rect stroke="#020202" x="11" y="8" width="43" height="116" rx="19"></rect>
            <rect id="Fender-Left" stroke="#000000" stroke-width="3" x="0" y="0" width="65" height="83" rx="19"></rect>
        </g>
        <rect id="Bumper" stroke="#000000" stroke-width="3" fill="#FDFDFD" x="16" y="378" width="317" height="38" rx="19"></rect>
        <g id="Headlights" transform="translate(41.000000, 241.000000)" stroke="#000000" stroke-width="3">
            <circle id="Right-Light" fill="#FFFCFC" cx="29.5" cy="29.5" r="29.5"></circle>
            <circle id="Left-Light" fill="#FFFFFF" cx="238.5" cy="29.5" r="29.5"></circle>
        </g>
        <g id="Window" transform="translate(51.000000, 118.000000)">
            <rect id="Windshield" stroke="#181C22" stroke-width="3" fill="#FFFFFF" x="0" y="0" width="252" height="92" rx="8"></rect>
            <g id="Windshield-Divider" transform="translate(121.000000, 0.000000)" fill="#000000">
                <rect id="Rectangle-11" x="0" y="0" width="9" height="91.0107527"></rect>
            </g>
        </g>
    </g>
</svg>