<?xml version="1.0" standalone="no"?>
<!DOCTYPE svg PUBLIC "-//W3C//DTD SVG 1.1//EN" "http://www.w3.org/Graphics/SVG/1.1/DTD/svg11.dtd">
<svg width="100%" height="100%" viewBox="0 0 36 36" version="1.1" xmlns="http://www.w3.org/2000/svg" xmlns:xlink="http://www.w3.org/1999/xlink" xml:space="preserve" style="fill-rule:evenodd;clip-rule:evenodd;stroke-miterlimit:1.41421;">
    <g id="truck-icon">
        <g id="Rig" transform="matrix(1,0,0,1,3.99673,0)">
            <g id="Rig-Back" transform="matrix(1,0,0,0.932534,0,2.04355)">
                <path d="M27.952,4.289C27.952,1.922 26.159,0 23.952,0L4,0C1.792,0 0,1.922 0,4.289L0,26.001C0,28.368 1.792,30.29 4,30.29L23.952,30.29C26.159,30.29 27.952,28.368 27.952,26.001L27.952,4.289Z" style="fill:black;"/>
                <path d="M24.104,-2.072L24.255,-2.066L24.406,-2.055L24.556,-2.041L24.705,-2.023L24.853,-2L25,-1.974L25.145,-1.944L25.29,-1.911L25.433,-1.873L25.575,-1.832L25.715,-1.787L25.854,-1.739L25.992,-1.687L26.128,-1.631L26.262,-1.572L26.394,-1.51L26.525,-1.445L26.654,-1.376L26.781,-1.304L26.906,-1.229L27.03,-1.151L27.151,-1.069L27.27,-0.985L27.387,-0.898L27.503,-0.808L27.616,-0.715L27.726,-0.619L27.835,-0.521L27.941,-0.42L28.045,-0.316L28.147,-0.209L28.246,-0.1L28.343,0.011L28.437,0.125L28.529,0.242L28.618,0.36L28.705,0.481L28.789,0.605L28.87,0.731L28.949,0.859L29.025,0.989L29.098,1.121L29.168,1.255L29.235,1.392L29.299,1.53L29.36,1.67L29.418,1.812L29.473,1.956L29.524,2.102L29.573,2.249L29.618,2.398L29.66,2.549L29.698,2.701L29.733,2.854L29.765,3.009L29.793,3.166L29.817,3.323L29.838,3.482L29.855,3.641L29.868,3.802L29.878,3.964L29.884,4.126L29.885,4.276L29.885,26.014L29.884,26.164L29.878,26.326L29.868,26.488L29.855,26.649L29.838,26.808L29.817,26.967L29.793,27.125L29.765,27.281L29.733,27.436L29.698,27.589L29.66,27.741L29.618,27.892L29.573,28.041L29.524,28.188L29.473,28.334L29.418,28.478L29.36,28.62L29.299,28.76L29.235,28.898L29.168,29.035L29.098,29.169L29.025,29.301L28.949,29.431L28.87,29.559L28.789,29.685L28.705,29.809L28.618,29.93L28.529,30.048L28.437,30.165L28.343,30.279L28.246,30.39L28.147,30.499L28.045,30.606L27.941,30.71L27.835,30.811L27.726,30.909L27.616,31.005L27.503,31.098L27.387,31.188L27.27,31.275L27.151,31.359L27.03,31.441L26.906,31.519L26.781,31.594L26.654,31.666L26.525,31.735L26.394,31.8L26.262,31.862L26.128,31.921L25.992,31.977L25.854,32.029L25.715,32.077L25.575,32.122L25.433,32.163L25.29,32.201L25.145,32.234L25,32.264L24.853,32.29L24.705,32.313L24.556,32.331L24.406,32.345L24.255,32.356L24.104,32.362L23.964,32.364L3.988,32.364L3.848,32.362L3.696,32.356L3.546,32.345L3.396,32.331L3.247,32.313L3.099,32.29L2.952,32.264L2.806,32.234L2.662,32.201L2.519,32.163L2.377,32.122L2.236,32.077L2.097,32.029L1.96,31.977L1.824,31.921L1.69,31.862L1.557,31.8L1.427,31.735L1.298,31.666L1.171,31.594L1.045,31.519L0.922,31.441L0.801,31.359L0.681,31.275L0.564,31.188L0.449,31.098L0.336,31.005L0.225,30.909L0.117,30.811L0.01,30.71L-0.094,30.606L-0.195,30.499L-0.295,30.39L-0.391,30.279L-0.486,30.165L-0.578,30.048L-0.667,29.93L-0.753,29.809L-0.837,29.685L-0.919,29.559L-0.997,29.431L-1.073,29.301L-1.146,29.169L-1.216,29.035L-1.283,28.898L-1.347,28.76L-1.408,28.62L-1.466,28.478L-1.521,28.334L-1.573,28.188L-1.621,28.041L-1.667,27.892L-1.708,27.741L-1.747,27.589L-1.782,27.436L-1.813,27.281L-1.841,27.125L-1.866,26.967L-1.886,26.808L-1.903,26.649L-1.917,26.488L-1.926,26.326L-1.932,26.164L-1.934,26.014L-1.934,4.276L-1.932,4.126L-1.926,3.964L-1.917,3.802L-1.903,3.641L-1.886,3.482L-1.866,3.323L-1.841,3.165L-1.813,3.009L-1.782,2.854L-1.747,2.701L-1.708,2.549L-1.667,2.398L-1.621,2.249L-1.573,2.102L-1.521,1.956L-1.466,1.812L-1.408,1.67L-1.347,1.53L-1.283,1.392L-1.216,1.255L-1.146,1.121L-1.073,0.989L-0.997,0.859L-0.919,0.731L-0.837,0.605L-0.753,0.481L-0.667,0.36L-0.578,0.242L-0.486,0.125L-0.391,0.011L-0.295,-0.1L-0.195,-0.209L-0.094,-0.316L0.01,-0.42L0.117,-0.521L0.225,-0.619L0.336,-0.715L0.449,-0.808L0.564,-0.898L0.681,-0.985L0.801,-1.069L0.922,-1.151L1.045,-1.229L1.171,-1.304L1.298,-1.376L1.427,-1.445L1.557,-1.51L1.69,-1.572L1.824,-1.631L1.96,-1.687L2.097,-1.739L2.236,-1.787L2.377,-1.832L2.519,-1.873L2.662,-1.911L2.806,-1.944L2.952,-1.974L3.099,-2L3.247,-2.023L3.396,-2.041L3.546,-2.055L3.696,-2.066L3.848,-2.072L3.988,-2.074L23.964,-2.074L24.104,-2.072ZM4.012,2.074L3.946,2.075L3.892,2.077L3.839,2.08L3.787,2.085L3.735,2.092L3.684,2.099L3.633,2.108L3.582,2.119L3.532,2.13L3.483,2.143L3.434,2.158L3.386,2.173L3.338,2.19L3.291,2.208L3.244,2.227L3.197,2.247L3.152,2.269L3.106,2.291L3.062,2.315L3.017,2.34L2.974,2.366L2.931,2.393L2.889,2.422L2.847,2.451L2.806,2.482L2.766,2.513L2.726,2.546L2.687,2.579L2.649,2.614L2.612,2.649L2.575,2.686L2.54,2.723L2.505,2.762L2.471,2.801L2.438,2.841L2.405,2.882L2.374,2.923L2.344,2.966L2.314,3.009L2.286,3.053L2.258,3.098L2.232,3.143L2.207,3.189L2.182,3.236L2.159,3.283L2.137,3.331L2.116,3.38L2.095,3.429L2.077,3.478L2.059,3.529L2.042,3.579L2.026,3.631L2.012,3.683L1.999,3.735L1.987,3.788L1.976,3.842L1.966,3.896L1.958,3.95L1.951,4.005L1.945,4.061L1.94,4.117L1.937,4.174L1.935,4.231L1.934,4.303L1.934,25.987L1.935,26.059L1.937,26.116L1.94,26.173L1.945,26.229L1.951,26.285L1.958,26.34L1.966,26.394L1.976,26.448L1.987,26.502L1.999,26.555L2.012,26.607L2.026,26.659L2.042,26.711L2.059,26.761L2.077,26.812L2.095,26.861L2.116,26.91L2.137,26.959L2.159,27.007L2.182,27.054L2.207,27.101L2.232,27.147L2.258,27.192L2.286,27.237L2.314,27.281L2.344,27.324L2.374,27.367L2.405,27.408L2.438,27.449L2.471,27.489L2.505,27.528L2.54,27.567L2.575,27.604L2.612,27.641L2.649,27.676L2.687,27.711L2.726,27.744L2.766,27.777L2.806,27.808L2.847,27.839L2.889,27.868L2.931,27.897L2.974,27.924L3.017,27.95L3.062,27.975L3.106,27.999L3.152,28.021L3.197,28.043L3.244,28.063L3.291,28.082L3.338,28.1L3.386,28.117L3.434,28.132L3.483,28.147L3.532,28.16L3.582,28.171L3.633,28.182L3.684,28.191L3.735,28.198L3.787,28.205L3.839,28.21L3.892,28.213L3.946,28.215L4.012,28.216L23.939,28.216L24.006,28.215L24.059,28.213L24.112,28.21L24.165,28.205L24.217,28.198L24.268,28.191L24.319,28.182L24.369,28.171L24.419,28.16L24.468,28.147L24.517,28.132L24.566,28.117L24.614,28.1L24.661,28.082L24.708,28.063L24.754,28.043L24.8,28.021L24.845,27.999L24.89,27.975L24.934,27.95L24.978,27.924L25.021,27.897L25.063,27.868L25.105,27.839L25.146,27.808L25.186,27.777L25.225,27.744L25.264,27.711L25.302,27.676L25.34,27.641L25.376,27.604L25.412,27.567L25.447,27.528L25.481,27.489L25.514,27.449L25.546,27.408L25.578,27.367L25.608,27.324L25.637,27.281L25.666,27.237L25.693,27.192L25.72,27.147L25.745,27.101L25.769,27.054L25.793,27.007L25.815,26.959L25.836,26.91L25.856,26.861L25.875,26.812L25.893,26.761L25.91,26.711L25.925,26.659L25.94,26.607L25.953,26.555L25.965,26.502L25.976,26.449L25.985,26.394L25.994,26.34L26.001,26.285L26.007,26.229L26.012,26.173L26.015,26.116L26.017,26.059L26.018,25.987L26.018,4.303L26.017,4.231L26.015,4.174L26.012,4.117L26.007,4.061L26.001,4.005L25.994,3.95L25.985,3.896L25.976,3.842L25.965,3.788L25.953,3.735L25.94,3.683L25.925,3.631L25.91,3.579L25.893,3.529L25.875,3.478L25.856,3.429L25.836,3.38L25.815,3.331L25.793,3.283L25.769,3.236L25.745,3.189L25.72,3.143L25.693,3.098L25.666,3.053L25.637,3.009L25.608,2.966L25.578,2.923L25.546,2.882L25.514,2.841L25.481,2.801L25.447,2.762L25.412,2.723L25.376,2.686L25.34,2.649L25.302,2.614L25.264,2.579L25.225,2.546L25.186,2.513L25.146,2.482L25.105,2.451L25.063,2.422L25.021,2.393L24.978,2.366L24.934,2.34L24.89,2.315L24.845,2.291L24.8,2.269L24.754,2.247L24.708,2.227L24.661,2.208L24.614,2.19L24.566,2.173L24.517,2.158L24.468,2.143L24.419,2.13L24.369,2.119L24.319,2.108L24.268,2.099L24.217,2.092L24.165,2.085L24.112,2.08L24.059,2.077L24.006,2.075L23.939,2.074L4.012,2.074Z" style="fill:black;"/>
            </g>
            <g id="Rig-Side-Trim" transform="matrix(1,0,0,0.958073,0,1.24197)">
                <path d="M27.478,4.758C27.478,2.453 25.685,0.582 23.478,0.582L4.569,0.582C2.361,0.582 0.569,2.453 0.569,4.758L0.569,25.447C0.569,27.752 2.361,29.622 4.569,29.622L23.478,29.622C25.685,29.622 27.478,27.752 27.478,25.447L27.478,4.758Z" style="fill:black;stroke-width:1px;stroke:rgb(254,254,254);"/>
            </g>
        </g>
        <g id="Cabin" transform="matrix(1,0,0,1,5,8)">
            <path d="M25.35,2.255C25.35,1.151 24.454,0.255 23.35,0.255L2.99,0.255C1.886,0.255 0.99,1.151 0.99,2.255L0.99,22.885C0.99,23.989 1.886,24.885 2.99,24.885L23.35,24.885C24.454,24.885 25.35,23.989 25.35,22.885L25.35,2.255Z" style="fill:black;"/>
            <path d="M23.452,-1.744L23.554,-1.74L23.656,-1.734L23.757,-1.725L23.857,-1.713L23.957,-1.699L24.056,-1.683L24.154,-1.664L24.252,-1.643L24.349,-1.619L24.444,-1.593L24.539,-1.565L24.633,-1.534L24.726,-1.502L24.817,-1.467L24.908,-1.43L24.997,-1.391L25.086,-1.349L25.173,-1.306L25.258,-1.261L25.343,-1.214L25.426,-1.165L25.508,-1.113L25.588,-1.061L25.667,-1.006L25.745,-0.949L25.821,-0.891L25.895,-0.831L25.968,-0.769L26.04,-0.705L26.11,-0.64L26.178,-0.573L26.245,-0.505L26.31,-0.435L26.374,-0.363L26.436,-0.29L26.496,-0.216L26.554,-0.14L26.611,-0.062L26.666,0.017L26.719,0.097L26.77,0.179L26.819,0.262L26.866,0.347L26.911,0.432L26.955,0.519L26.996,0.608L27.035,0.697L27.072,0.788L27.107,0.879L27.139,0.972L27.17,1.066L27.198,1.161L27.224,1.256L27.248,1.353L27.269,1.451L27.288,1.549L27.304,1.648L27.318,1.748L27.33,1.848L27.339,1.949L27.345,2.051L27.349,2.153L27.35,2.242L27.35,22.898L27.349,22.988L27.345,23.09L27.339,23.191L27.33,23.292L27.318,23.392L27.304,23.492L27.288,23.591L27.269,23.69L27.248,23.787L27.224,23.884L27.198,23.979L27.17,24.074L27.139,24.168L27.107,24.261L27.072,24.353L27.035,24.443L26.996,24.533L26.955,24.621L26.911,24.708L26.866,24.793L26.819,24.878L26.77,24.961L26.719,25.043L26.666,25.123L26.611,25.202L26.554,25.28L26.496,25.356L26.436,25.43L26.374,25.504L26.31,25.575L26.245,25.645L26.178,25.714L26.11,25.78L26.04,25.846L25.968,25.909L25.895,25.971L25.821,26.031L25.745,26.089L25.667,26.146L25.588,26.201L25.508,26.254L25.426,26.305L25.343,26.354L25.258,26.401L25.173,26.446L25.086,26.49L24.997,26.531L24.908,26.57L24.817,26.607L24.726,26.642L24.633,26.675L24.539,26.705L24.444,26.733L24.349,26.759L24.252,26.783L24.154,26.804L24.056,26.823L23.957,26.839L23.857,26.853L23.757,26.865L23.656,26.874L23.554,26.88L23.452,26.884L23.363,26.885L2.978,26.885L2.888,26.884L2.786,26.88L2.684,26.874L2.584,26.865L2.483,26.853L2.383,26.839L2.284,26.823L2.186,26.804L2.088,26.783L1.992,26.759L1.896,26.733L1.801,26.705L1.707,26.675L1.615,26.642L1.523,26.607L1.432,26.57L1.343,26.531L1.255,26.49L1.168,26.446L1.082,26.401L0.998,26.354L0.914,26.305L0.833,26.254L0.752,26.201L0.673,26.146L0.596,26.089L0.52,26.031L0.445,25.971L0.372,25.909L0.3,25.846L0.23,25.78L0.162,25.714L0.095,25.645L0.03,25.575L-0.034,25.504L-0.095,25.43L-0.156,25.356L-0.214,25.28L-0.27,25.202L-0.325,25.123L-0.378,25.043L-0.429,24.961L-0.478,24.878L-0.526,24.793L-0.571,24.708L-0.614,24.621L-0.655,24.532L-0.695,24.443L-0.732,24.353L-0.766,24.261L-0.799,24.168L-0.83,24.074L-0.858,23.979L-0.884,23.884L-0.907,23.787L-0.929,23.69L-0.947,23.591L-0.964,23.492L-0.978,23.392L-0.989,23.292L-0.998,23.191L-1.005,23.09L-1.009,22.988L-1.01,22.898L-1.01,2.242L-1.009,2.153L-1.005,2.051L-0.998,1.949L-0.989,1.848L-0.978,1.748L-0.964,1.648L-0.947,1.549L-0.929,1.451L-0.907,1.353L-0.884,1.256L-0.858,1.161L-0.83,1.066L-0.799,0.972L-0.766,0.879L-0.732,0.788L-0.695,0.697L-0.655,0.608L-0.614,0.519L-0.571,0.432L-0.526,0.347L-0.478,0.262L-0.429,0.179L-0.378,0.097L-0.325,0.017L-0.27,-0.062L-0.214,-0.14L-0.156,-0.216L-0.095,-0.29L-0.034,-0.363L0.03,-0.435L0.095,-0.505L0.162,-0.573L0.23,-0.64L0.3,-0.705L0.372,-0.769L0.445,-0.831L0.52,-0.891L0.596,-0.949L0.673,-1.006L0.752,-1.061L0.833,-1.113L0.915,-1.165L0.998,-1.214L1.082,-1.261L1.168,-1.306L1.255,-1.349L1.343,-1.391L1.432,-1.43L1.523,-1.467L1.615,-1.502L1.707,-1.534L1.801,-1.565L1.896,-1.593L1.992,-1.619L2.088,-1.643L2.186,-1.664L2.284,-1.683L2.383,-1.699L2.483,-1.713L2.583,-1.725L2.684,-1.734L2.786,-1.74L2.888,-1.744L2.978,-1.745L23.363,-1.745L23.452,-1.744ZM3.003,2.255L2.991,2.255L2.991,2.255L2.99,2.255L2.99,2.268L2.99,22.873L2.99,22.885L2.991,22.885L3.003,22.885L23.338,22.885L23.35,22.885L23.35,22.885L23.35,22.885L23.35,22.873L23.35,2.268L23.35,2.255L23.35,2.255L23.35,2.255L23.338,2.255L3.003,2.255Z" style="fill:black;"/>
        </g>
        <g id="Right-Wheel" transform="matrix(1,0,0,1,3,25.6818)">
            <path d="M4.822,2.586C4.822,1.526 3.962,0.666 2.902,0.666C1.843,0.666 0.982,1.526 0.982,2.586L0.982,8.398C0.982,9.458 1.843,10.318 2.902,10.318C3.962,10.318 4.822,9.458 4.822,8.398L4.822,2.586Z" style="fill:black;stroke-width:1px;stroke:rgb(2,2,2);"/>
            <g id="Fender-Right">
                <path d="M5.805,2.902C5.805,1.3 4.504,0 2.902,0C1.3,0 0,1.3 0,2.902L0,4.004C0,5.606 1.3,6.907 2.902,6.907C4.504,6.907 5.805,5.606 5.805,4.004L5.805,2.902Z" style="fill:black;"/>
                <path d="M3.015,-1.499L3.128,-1.494L3.239,-1.487L3.351,-1.477L3.461,-1.465L3.571,-1.449L3.68,-1.431L3.788,-1.411L3.895,-1.387L4.001,-1.361L4.107,-1.333L4.211,-1.302L4.314,-1.268L4.416,-1.232L4.517,-1.194L4.616,-1.153L4.715,-1.11L4.812,-1.065L4.907,-1.017L5.002,-0.968L5.095,-0.916L5.186,-0.861L5.276,-0.805L5.365,-0.747L5.452,-0.687L5.537,-0.624L5.621,-0.56L5.703,-0.494L5.783,-0.426L5.862,-0.356L5.94,-0.284L6.015,-0.21L6.089,-0.135L6.16,-0.058L6.23,0.021L6.298,0.102L6.365,0.184L6.429,0.268L6.491,0.353L6.552,0.44L6.61,0.529L6.666,0.619L6.72,0.71L6.772,0.803L6.822,0.897L6.87,0.993L6.915,1.09L6.958,1.188L6.999,1.288L7.037,1.389L7.073,1.491L7.106,1.594L7.137,1.698L7.166,1.803L7.192,1.909L7.215,2.017L7.236,2.125L7.254,2.234L7.269,2.344L7.282,2.454L7.292,2.565L7.299,2.677L7.303,2.789L7.305,2.893L7.305,4.014L7.303,4.117L7.299,4.229L7.292,4.341L7.282,4.452L7.269,4.563L7.254,4.673L7.236,4.782L7.215,4.89L7.192,4.997L7.166,5.103L7.137,5.209L7.106,5.313L7.073,5.416L7.037,5.518L6.999,5.619L6.958,5.718L6.915,5.816L6.87,5.913L6.822,6.009L6.772,6.103L6.72,6.196L6.666,6.288L6.61,6.378L6.552,6.466L6.491,6.553L6.429,6.639L6.365,6.723L6.298,6.805L6.23,6.885L6.16,6.964L6.089,7.041L6.015,7.117L5.94,7.19L5.862,7.262L5.783,7.332L5.703,7.4L5.621,7.467L5.537,7.531L5.452,7.593L5.365,7.653L5.276,7.712L5.186,7.768L5.095,7.822L5.002,7.874L4.907,7.924L4.812,7.971L4.715,8.017L4.616,8.06L4.517,8.1L4.416,8.139L4.314,8.175L4.211,8.208L4.107,8.239L4.001,8.268L3.895,8.294L3.788,8.317L3.68,8.338L3.571,8.356L3.461,8.371L3.351,8.384L3.239,8.394L3.128,8.401L3.015,8.405L2.902,8.407L2.789,8.405L2.677,8.401L2.565,8.394L2.454,8.384L2.343,8.371L2.234,8.356L2.125,8.338L2.017,8.317L1.909,8.294L1.803,8.268L1.698,8.239L1.594,8.208L1.491,8.175L1.389,8.139L1.288,8.1L1.188,8.06L1.09,8.017L0.993,7.971L0.897,7.924L0.803,7.874L0.71,7.822L0.619,7.768L0.529,7.712L0.44,7.653L0.353,7.593L0.268,7.531L0.184,7.467L0.102,7.4L0.021,7.332L-0.058,7.262L-0.135,7.19L-0.21,7.117L-0.284,7.041L-0.356,6.964L-0.426,6.885L-0.494,6.805L-0.56,6.723L-0.624,6.639L-0.687,6.553L-0.747,6.466L-0.805,6.378L-0.861,6.288L-0.916,6.196L-0.968,6.103L-1.017,6.009L-1.065,5.913L-1.11,5.816L-1.153,5.718L-1.194,5.619L-1.232,5.518L-1.268,5.416L-1.302,5.313L-1.333,5.209L-1.361,5.103L-1.387,4.997L-1.411,4.89L-1.431,4.782L-1.449,4.673L-1.465,4.563L-1.477,4.452L-1.487,4.341L-1.494,4.229L-1.499,4.117L-1.5,4.014L-1.5,2.893L-1.499,2.789L-1.494,2.677L-1.487,2.565L-1.477,2.454L-1.465,2.344L-1.449,2.234L-1.431,2.125L-1.411,2.017L-1.387,1.909L-1.361,1.803L-1.333,1.698L-1.302,1.594L-1.268,1.491L-1.232,1.389L-1.194,1.288L-1.153,1.188L-1.11,1.09L-1.065,0.993L-1.017,0.897L-0.968,0.803L-0.916,0.71L-0.861,0.619L-0.805,0.529L-0.747,0.44L-0.687,0.353L-0.624,0.268L-0.56,0.184L-0.494,0.102L-0.426,0.021L-0.356,-0.058L-0.284,-0.135L-0.21,-0.21L-0.135,-0.284L-0.058,-0.356L0.021,-0.426L0.102,-0.494L0.184,-0.56L0.268,-0.624L0.353,-0.687L0.44,-0.747L0.529,-0.805L0.619,-0.861L0.71,-0.916L0.803,-0.968L0.897,-1.017L0.993,-1.065L1.09,-1.11L1.188,-1.153L1.288,-1.194L1.389,-1.232L1.491,-1.268L1.594,-1.302L1.698,-1.333L1.803,-1.361L1.909,-1.387L2.017,-1.411L2.125,-1.431L2.234,-1.449L2.344,-1.465L2.454,-1.477L2.565,-1.487L2.677,-1.494L2.789,-1.499L2.902,-1.5L3.015,-1.499ZM2.865,1.501L2.829,1.502L2.793,1.504L2.757,1.507L2.722,1.511L2.687,1.516L2.653,1.522L2.619,1.529L2.585,1.536L2.551,1.544L2.518,1.553L2.486,1.563L2.453,1.573L2.421,1.585L2.389,1.597L2.358,1.61L2.327,1.623L2.296,1.638L2.266,1.653L2.236,1.669L2.206,1.685L2.177,1.702L2.148,1.72L2.12,1.739L2.092,1.758L2.065,1.778L2.038,1.799L2.012,1.82L1.986,1.842L1.96,1.864L1.935,1.888L1.911,1.911L1.888,1.935L1.864,1.96L1.842,1.986L1.82,2.012L1.799,2.038L1.778,2.065L1.758,2.092L1.739,2.12L1.72,2.148L1.702,2.177L1.685,2.206L1.669,2.236L1.653,2.266L1.638,2.296L1.623,2.327L1.61,2.358L1.597,2.389L1.585,2.421L1.573,2.453L1.563,2.486L1.553,2.518L1.544,2.551L1.536,2.585L1.529,2.619L1.522,2.653L1.516,2.687L1.511,2.722L1.507,2.757L1.504,2.793L1.502,2.829L1.501,2.865L1.5,2.912L1.5,3.995L1.501,4.041L1.502,4.077L1.504,4.113L1.507,4.149L1.511,4.184L1.516,4.219L1.522,4.254L1.529,4.288L1.536,4.322L1.544,4.355L1.553,4.388L1.563,4.421L1.573,4.453L1.585,4.486L1.597,4.517L1.61,4.549L1.623,4.58L1.638,4.611L1.653,4.641L1.669,4.671L1.685,4.7L1.702,4.729L1.72,4.758L1.739,4.786L1.758,4.814L1.778,4.842L1.799,4.869L1.82,4.895L1.842,4.921L1.864,4.946L1.888,4.971L1.911,4.995L1.935,5.019L1.96,5.042L1.986,5.065L2.012,5.086L2.038,5.108L2.065,5.128L2.092,5.148L2.12,5.168L2.148,5.186L2.177,5.204L2.206,5.221L2.236,5.238L2.266,5.254L2.296,5.269L2.327,5.283L2.358,5.297L2.389,5.31L2.421,5.322L2.453,5.333L2.486,5.344L2.518,5.353L2.551,5.362L2.585,5.371L2.619,5.378L2.653,5.384L2.687,5.39L2.722,5.395L2.758,5.399L2.793,5.402L2.829,5.405L2.865,5.406L2.902,5.406L2.939,5.406L2.976,5.405L3.012,5.402L3.047,5.399L3.082,5.395L3.117,5.39L3.152,5.384L3.186,5.378L3.22,5.371L3.253,5.362L3.286,5.353L3.319,5.344L3.352,5.333L3.384,5.322L3.415,5.31L3.447,5.297L3.478,5.283L3.509,5.269L3.539,5.254L3.569,5.238L3.598,5.221L3.628,5.204L3.656,5.186L3.685,5.168L3.712,5.148L3.74,5.128L3.767,5.108L3.793,5.086L3.819,5.065L3.844,5.042L3.869,5.019L3.893,4.995L3.917,4.971L3.94,4.946L3.963,4.921L3.985,4.895L4.006,4.869L4.027,4.842L4.047,4.814L4.066,4.786L4.084,4.758L4.102,4.729L4.12,4.7L4.136,4.671L4.152,4.641L4.167,4.611L4.181,4.58L4.195,4.549L4.208,4.517L4.22,4.486L4.231,4.453L4.242,4.421L4.252,4.388L4.26,4.355L4.269,4.322L4.276,4.288L4.283,4.254L4.288,4.219L4.293,4.184L4.297,4.149L4.3,4.113L4.303,4.077L4.304,4.041L4.305,3.995L4.305,2.912L4.304,2.865L4.303,2.829L4.3,2.793L4.297,2.757L4.293,2.722L4.288,2.687L4.283,2.653L4.276,2.619L4.269,2.585L4.26,2.551L4.252,2.518L4.242,2.486L4.231,2.453L4.22,2.421L4.208,2.389L4.195,2.358L4.181,2.327L4.167,2.296L4.152,2.266L4.136,2.236L4.12,2.206L4.102,2.177L4.084,2.148L4.066,2.12L4.046,2.092L4.027,2.065L4.006,2.038L3.985,2.012L3.963,1.986L3.94,1.96L3.917,1.935L3.893,1.911L3.869,1.888L3.844,1.864L3.819,1.842L3.793,1.82L3.767,1.799L3.74,1.778L3.712,1.758L3.685,1.739L3.656,1.72L3.628,1.702L3.598,1.685L3.569,1.669L3.539,1.653L3.509,1.638L3.478,1.623L3.447,1.61L3.415,1.597L3.384,1.585L3.352,1.573L3.319,1.563L3.286,1.553L3.253,1.544L3.22,1.536L3.186,1.529L3.152,1.522L3.117,1.516L3.082,1.511L3.047,1.507L3.012,1.504L2.976,1.502L2.939,1.501L2.902,1.5L2.865,1.501Z" style="fill:black;"/>
            </g>
        </g>
        <g id="Left-Wheel" transform="matrix(1,0,0,1,27.5628,25.6818)">
            <path d="M4.822,2.586C4.822,1.526 3.962,0.666 2.902,0.666C1.843,0.666 0.982,1.526 0.982,2.586L0.982,8.398C0.982,9.458 1.843,10.318 2.902,10.318C3.962,10.318 4.822,9.458 4.822,8.398L4.822,2.586Z" style="fill:black;stroke-width:1px;stroke:rgb(2,2,2);"/>
            <g id="Fender-Left" transform="matrix(1,0,0,1,-0.418194,0)">
                <path d="M5.805,2.902C5.805,1.3 4.504,0 2.902,0C1.3,0 0,1.3 0,2.902L0,4.004C0,5.606 1.3,6.907 2.902,6.907C4.504,6.907 5.805,5.606 5.805,4.004L5.805,2.902Z" style="fill:black;"/>
                <path d="M3.015,-1.499L3.128,-1.494L3.239,-1.487L3.351,-1.477L3.461,-1.465L3.571,-1.449L3.68,-1.431L3.788,-1.411L3.895,-1.387L4.001,-1.361L4.107,-1.333L4.211,-1.302L4.314,-1.268L4.416,-1.232L4.517,-1.194L4.616,-1.153L4.715,-1.11L4.812,-1.065L4.907,-1.017L5.002,-0.968L5.095,-0.916L5.186,-0.861L5.276,-0.805L5.365,-0.747L5.451,-0.687L5.537,-0.624L5.621,-0.56L5.703,-0.494L5.783,-0.426L5.862,-0.356L5.94,-0.284L6.015,-0.21L6.089,-0.135L6.16,-0.058L6.23,0.021L6.298,0.102L6.365,0.184L6.429,0.268L6.491,0.353L6.552,0.44L6.61,0.529L6.666,0.619L6.72,0.71L6.772,0.803L6.822,0.897L6.87,0.993L6.915,1.09L6.958,1.188L6.999,1.288L7.037,1.389L7.073,1.491L7.106,1.594L7.137,1.698L7.166,1.803L7.192,1.91L7.215,2.017L7.236,2.125L7.254,2.234L7.269,2.344L7.282,2.454L7.292,2.565L7.299,2.677L7.303,2.789L7.305,2.893L7.305,4.014L7.303,4.117L7.299,4.229L7.292,4.341L7.282,4.452L7.269,4.563L7.254,4.673L7.236,4.782L7.215,4.89L7.192,4.997L7.166,5.103L7.137,5.209L7.106,5.313L7.073,5.416L7.037,5.518L6.999,5.619L6.958,5.718L6.915,5.816L6.87,5.913L6.822,6.009L6.772,6.103L6.72,6.196L6.666,6.288L6.61,6.378L6.552,6.466L6.491,6.553L6.429,6.639L6.365,6.723L6.298,6.805L6.23,6.885L6.16,6.964L6.089,7.041L6.015,7.117L5.94,7.19L5.862,7.262L5.783,7.332L5.703,7.4L5.621,7.467L5.537,7.531L5.452,7.593L5.365,7.653L5.276,7.712L5.186,7.768L5.095,7.822L5.002,7.874L4.907,7.924L4.812,7.971L4.715,8.017L4.616,8.06L4.517,8.1L4.416,8.139L4.314,8.175L4.211,8.208L4.107,8.239L4.001,8.268L3.895,8.294L3.788,8.317L3.68,8.338L3.571,8.356L3.461,8.371L3.351,8.384L3.239,8.394L3.128,8.401L3.015,8.405L2.902,8.407L2.789,8.405L2.677,8.401L2.565,8.394L2.454,8.384L2.343,8.371L2.234,8.356L2.125,8.338L2.017,8.317L1.909,8.294L1.803,8.268L1.698,8.239L1.594,8.208L1.491,8.175L1.389,8.139L1.288,8.1L1.188,8.06L1.09,8.017L0.993,7.971L0.897,7.924L0.803,7.874L0.71,7.822L0.619,7.768L0.529,7.712L0.44,7.653L0.353,7.593L0.268,7.531L0.184,7.467L0.102,7.4L0.021,7.332L-0.058,7.262L-0.135,7.19L-0.21,7.117L-0.284,7.041L-0.356,6.964L-0.426,6.885L-0.494,6.805L-0.56,6.723L-0.624,6.639L-0.687,6.553L-0.747,6.466L-0.805,6.378L-0.861,6.288L-0.916,6.196L-0.967,6.103L-1.017,6.009L-1.065,5.913L-1.11,5.816L-1.153,5.718L-1.194,5.619L-1.232,5.518L-1.268,5.416L-1.302,5.313L-1.333,5.209L-1.361,5.103L-1.387,4.997L-1.411,4.89L-1.431,4.782L-1.449,4.673L-1.465,4.563L-1.477,4.452L-1.487,4.341L-1.494,4.229L-1.499,4.117L-1.5,4.014L-1.5,2.893L-1.499,2.789L-1.494,2.677L-1.487,2.565L-1.477,2.454L-1.465,2.343L-1.449,2.234L-1.431,2.125L-1.411,2.017L-1.387,1.909L-1.361,1.803L-1.333,1.698L-1.302,1.594L-1.268,1.491L-1.232,1.389L-1.194,1.288L-1.153,1.188L-1.11,1.09L-1.065,0.993L-1.017,0.897L-0.968,0.803L-0.916,0.71L-0.861,0.619L-0.805,0.529L-0.747,0.44L-0.687,0.353L-0.624,0.268L-0.56,0.184L-0.494,0.102L-0.426,0.021L-0.356,-0.058L-0.284,-0.135L-0.21,-0.21L-0.135,-0.284L-0.058,-0.356L0.021,-0.426L0.102,-0.494L0.184,-0.56L0.268,-0.624L0.353,-0.687L0.44,-0.747L0.529,-0.805L0.619,-0.861L0.71,-0.916L0.803,-0.968L0.897,-1.017L0.993,-1.065L1.09,-1.11L1.188,-1.153L1.288,-1.194L1.389,-1.232L1.491,-1.268L1.594,-1.302L1.698,-1.333L1.803,-1.361L1.909,-1.387L2.017,-1.411L2.125,-1.431L2.234,-1.449L2.344,-1.465L2.454,-1.477L2.565,-1.487L2.677,-1.494L2.789,-1.499L2.902,-1.5L3.015,-1.499ZM2.865,1.501L2.829,1.502L2.793,1.504L2.757,1.507L2.722,1.511L2.687,1.516L2.653,1.522L2.619,1.529L2.585,1.536L2.551,1.544L2.518,1.553L2.486,1.563L2.453,1.573L2.421,1.585L2.389,1.597L2.358,1.61L2.327,1.623L2.296,1.638L2.266,1.653L2.236,1.669L2.206,1.685L2.177,1.702L2.148,1.72L2.12,1.739L2.092,1.758L2.065,1.778L2.038,1.799L2.012,1.82L1.986,1.842L1.96,1.864L1.935,1.888L1.911,1.911L1.888,1.935L1.864,1.96L1.842,1.986L1.82,2.012L1.799,2.038L1.778,2.065L1.758,2.092L1.739,2.12L1.72,2.148L1.702,2.177L1.685,2.206L1.669,2.236L1.653,2.266L1.638,2.296L1.623,2.327L1.61,2.358L1.597,2.389L1.585,2.421L1.573,2.453L1.563,2.486L1.553,2.518L1.544,2.551L1.536,2.585L1.529,2.619L1.522,2.653L1.516,2.687L1.511,2.722L1.507,2.757L1.504,2.793L1.502,2.829L1.501,2.865L1.5,2.912L1.5,3.995L1.501,4.041L1.502,4.077L1.504,4.113L1.507,4.149L1.511,4.184L1.516,4.219L1.522,4.254L1.529,4.288L1.536,4.322L1.544,4.355L1.553,4.388L1.563,4.421L1.573,4.453L1.585,4.486L1.597,4.517L1.61,4.549L1.623,4.58L1.638,4.611L1.653,4.641L1.669,4.671L1.685,4.7L1.702,4.729L1.72,4.758L1.739,4.786L1.758,4.814L1.778,4.842L1.799,4.869L1.82,4.895L1.842,4.921L1.864,4.946L1.888,4.971L1.911,4.995L1.935,5.019L1.96,5.042L1.986,5.065L2.012,5.086L2.038,5.108L2.065,5.128L2.092,5.148L2.12,5.168L2.148,5.186L2.177,5.204L2.206,5.221L2.236,5.238L2.266,5.254L2.296,5.269L2.327,5.283L2.358,5.297L2.389,5.31L2.421,5.322L2.453,5.333L2.486,5.344L2.518,5.353L2.551,5.362L2.585,5.371L2.619,5.378L2.653,5.384L2.687,5.39L2.722,5.395L2.758,5.399L2.793,5.402L2.829,5.405L2.865,5.406L2.902,5.406L2.939,5.406L2.976,5.405L3.012,5.402L3.047,5.399L3.082,5.395L3.117,5.39L3.152,5.384L3.186,5.378L3.22,5.371L3.253,5.362L3.286,5.353L3.319,5.344L3.352,5.333L3.384,5.322L3.415,5.31L3.447,5.297L3.478,5.283L3.509,5.269L3.539,5.254L3.569,5.238L3.598,5.221L3.628,5.204L3.656,5.186L3.685,5.168L3.712,5.148L3.74,5.128L3.767,5.108L3.793,5.087L3.819,5.065L3.844,5.042L3.869,5.019L3.893,4.995L3.917,4.971L3.94,4.946L3.963,4.921L3.985,4.895L4.006,4.869L4.027,4.842L4.046,4.814L4.066,4.786L4.084,4.758L4.102,4.729L4.12,4.7L4.136,4.671L4.152,4.641L4.167,4.611L4.181,4.58L4.195,4.549L4.208,4.517L4.22,4.486L4.231,4.453L4.242,4.421L4.252,4.388L4.26,4.355L4.269,4.322L4.276,4.288L4.283,4.254L4.288,4.219L4.293,4.184L4.297,4.149L4.3,4.113L4.303,4.077L4.304,4.041L4.305,3.995L4.305,2.912L4.304,2.865L4.303,2.829L4.3,2.793L4.297,2.757L4.293,2.722L4.288,2.687L4.283,2.653L4.276,2.619L4.269,2.585L4.26,2.551L4.252,2.518L4.242,2.486L4.231,2.453L4.22,2.421L4.208,2.389L4.195,2.358L4.181,2.327L4.167,2.296L4.152,2.266L4.136,2.236L4.12,2.206L4.102,2.177L4.084,2.148L4.066,2.12L4.046,2.092L4.027,2.065L4.006,2.038L3.985,2.012L3.963,1.986L3.94,1.96L3.917,1.935L3.893,1.911L3.869,1.888L3.844,1.864L3.819,1.842L3.793,1.82L3.767,1.799L3.74,1.778L3.712,1.758L3.685,1.739L3.656,1.72L3.628,1.702L3.598,1.685L3.569,1.669L3.539,1.653L3.509,1.638L3.478,1.623L3.447,1.61L3.415,1.597L3.384,1.585L3.352,1.573L3.319,1.563L3.286,1.553L3.253,1.544L3.22,1.536L3.186,1.529L3.152,1.522L3.117,1.516L3.082,1.511L3.047,1.507L3.012,1.504L2.976,1.502L2.939,1.501L2.902,1.5L2.865,1.501Z" style="fill:black;"/>
            </g>
        </g>
        <g id="Hood-+-Front" transform="matrix(1,0,0,1,7,18)">
            <path id="Hood" d="M5.654,0.344L17.255,0.344C18.134,0.344 19.178,0.923 19.587,1.635L21.813,5.508C22.222,6.221 21.485,6.799 20.165,6.799L2.744,6.799C1.425,6.799 0.687,6.22 1.097,5.508L3.322,1.635C3.731,0.922 4.775,0.344 5.654,0.344Z" style="fill:black;stroke-width:1px;stroke:white;"/>
            <path id="Front" d="M22.512,8.088C22.512,5.333 20.275,3.096 17.519,3.096L5.976,3.096C3.221,3.096 0.984,5.333 0.984,8.088C0.984,10.844 3.221,13.081 5.976,13.081L17.519,13.081C20.275,13.081 22.512,10.844 22.512,8.088L22.512,8.088Z" style="fill:black;stroke-width:1px;stroke:black;"/>
            <g id="Grill" transform="matrix(1,0,0,1,3.49576,4)">
                <path id="Rectangle-5" d="M13.814,4.758C13.814,2.645 12.099,0.93 9.986,0.93L4.802,0.93C2.689,0.93 0.974,2.645 0.974,4.758C0.974,6.87 2.689,8.586 4.802,8.586L9.986,8.586C12.099,8.586 13.814,6.87 13.814,4.758Z" style="fill:white;stroke-width:1px;stroke:white;"/>
                <path id="Rectangle-5-Copy" d="M13.031,4.76C13.031,3.152 11.726,1.847 10.118,1.847L4.883,1.847C3.276,1.847 1.971,3.152 1.971,4.76C1.971,6.367 3.276,7.672 4.883,7.672L10.118,7.672C11.726,7.672 13.031,6.367 13.031,4.76Z" style="fill:black;stroke-width:1px;stroke:black;"/>
                <g id="Grill-Rods" transform="matrix(0.975474,-1.56049e-17,-1.33757e-17,1.20177,2.16926,-0.018407)">
                    <rect id="Rectangle-12" x="8.938" y="0.847" width="0.989" height="5.825" style="fill:white;"/>
                    <rect id="Rectangle-12-Copy-2" x="6.948" y="0.847" width="0.989" height="5.825" style="fill:white;"/>
                    <rect id="Rectangle-12-Copy-3" x="4.948" y="0.847" width="0.989" height="5.825" style="fill:white;"/>
                    <rect id="Rectangle-12-Copy-4" x="2.954" y="0.847" width="0.989" height="5.825" style="fill:white;"/>
                    <rect id="Rectangle-12-Copy-6" x="0.964" y="0.847" width="0.989" height="5.825" style="fill:white;"/>
                </g>
            </g>
            <path id="Cap" d="M12.887,3.429C12.887,3.245 12.738,3.096 12.554,3.096L9.29,3.096C9.107,3.096 8.957,3.245 8.957,3.429C8.957,3.612 9.107,3.761 9.29,3.761L12.554,3.761C12.738,3.761 12.887,3.612 12.887,3.429Z" style="fill:white;"/>
        </g>
        <path id="Bumper" d="M32.307,32.265C32.307,31.117 31.375,30.185 30.227,30.185L6.077,30.185C4.929,30.185 3.997,31.117 3.997,32.265C3.997,33.413 4.929,34.345 6.077,34.345L30.227,34.345C31.375,34.345 32.307,33.413 32.307,32.265Z" style="fill:rgb(253,253,253);stroke-width:1px;stroke:black;"/>
        <g id="Headlights" transform="matrix(1,0,0,1,5.99018,19.2614)">
            <ellipse id="Right-Light" cx="2.634" cy="2.455" rx="2.634" ry="2.455" style="fill:rgb(255,252,252);stroke-width:1px;stroke:black;"/>
            <ellipse id="Left-Light" cx="21.299" cy="2.455" rx="2.634" ry="2.455" style="fill:white;stroke-width:1px;stroke:black;"/>
        </g>
        <g id="Window" transform="matrix(1,0,0,1,6.98691,9.17209)">
            <path id="Windshield" d="M22.504,2C22.504,0.896 21.608,0 20.504,0L2,0C0.896,0 0,0.896 0,2L0,5.655C0,6.759 0.896,7.655 2,7.655L20.504,7.655C21.608,7.655 22.504,6.759 22.504,5.655L22.504,2Z" style="fill:white;stroke-width:1px;stroke:rgb(24,28,34);"/>
            <g id="Rectangle-11" transform="matrix(1,0,0,1,10.8056,0)">
                <rect x="0" y="0" width="0.804" height="7.573" style="fill:black;"/>
            </g>
        </g>
    </g>
</svg>
